<?xml version="1.0" encoding="UTF-8" standalone="no"?>
<!-- Created with Inkscape (http://www.inkscape.org/) -->

<svg
   xmlns:dc="http://purl.org/dc/elements/1.1/"
   xmlns:cc="http://creativecommons.org/ns#"
   xmlns:rdf="http://www.w3.org/1999/02/22-rdf-syntax-ns#"
   xmlns:svg="http://www.w3.org/2000/svg"
   xmlns="http://www.w3.org/2000/svg"
   xmlns:xlink="http://www.w3.org/1999/xlink"
   xmlns:sodipodi="http://sodipodi.sourceforge.net/DTD/sodipodi-0.dtd"
   xmlns:inkscape="http://www.inkscape.org/namespaces/inkscape"
   height="756.71875"
   id="svg1"
   version="1.0"
   width="512.0625"
   x="0.0000000"
   y="0.0000000"
   sodipodi:version="0.32"
   inkscape:version="0.48.1 "
   sodipodi:docname="Aa.svg"
   inkscape:output_extension="org.inkscape.output.svg.inkscape">
  <sodipodi:namedview
     inkscape:window-height="1004"
     inkscape:window-width="1280"
     inkscape:pageshadow="2"
     inkscape:pageopacity="0.0"
     guidetolerance="10.0"
     gridtolerance="10.0"
     objecttolerance="10.0"
     borderopacity="0"
     bordercolor="#666666"
     pagecolor="#ffffff"
     id="base"
     showgrid="false"
     inkscape:zoom="0.50929478"
     inkscape:cx="373.13101"
     inkscape:cy="214.97322"
     inkscape:window-x="-8"
     inkscape:window-y="-8"
     inkscape:current-layer="svg1"
     inkscape:showpageshadow="false"
     showborder="false"
     borderlayer="false"
     fit-margin-top="0"
     fit-margin-left="0"
     fit-margin-right="0"
     fit-margin-bottom="0"
     inkscape:window-maximized="1">
    <inkscape:grid
       type="xygrid"
       id="grid2533"
       visible="true"
       enabled="true"
       empspacing="5"
       snapvisiblegridlinesonly="true" />
  </sodipodi:namedview>
  <metadata
     id="metadata2479">
    <rdf:RDF>
      <cc:Work
         rdf:about="">
        <dc:title>Flag of the State of Nevada</dc:title>
        <dc:description />
        <dc:subject>
          <rdf:Bag />
        </dc:subject>
        <dc:publisher>
          <cc:Agent
             rdf:about="http://www.openclipart.org">
            <dc:title />
          </cc:Agent>
        </dc:publisher>
        <dc:creator>
          <cc:Agent>
            <dc:title />
          </cc:Agent>
        </dc:creator>
        <dc:rights>
          <cc:Agent>
            <dc:title />
          </cc:Agent>
        </dc:rights>
        <dc:date />
        <dc:format>image/svg+xml</dc:format>
        <dc:type
           rdf:resource="http://purl.org/dc/dcmitype/StillImage" />
        <cc:license
           rdf:resource="http://creativecommons.org/licenses/publicdomain/" />
        <dc:language />
      </cc:Work>
      <cc:License
         rdf:about="http://creativecommons.org/licenses/publicdomain/">
        <cc:permits
           rdf:resource="http://creativecommons.org/ns#Reproduction" />
        <cc:permits
           rdf:resource="http://creativecommons.org/ns#Distribution" />
        <cc:permits
           rdf:resource="http://creativecommons.org/ns#DerivativeWorks" />
      </cc:License>
    </rdf:RDF>
  </metadata>
  <defs
     id="defs3">
    <linearGradient
       inkscape:collect="always"
       id="linearGradient7050">
      <stop
         style="stop-color:#014004;stop-opacity:1;"
         offset="0"
         id="stop7052" />
      <stop
         style="stop-color:#014004;stop-opacity:0;"
         offset="1"
         id="stop7054" />
    </linearGradient>
    <inkscape:perspective
       sodipodi:type="inkscape:persp3d"
       inkscape:vp_x="0 : 248.03149 : 1"
       inkscape:vp_y="0 : 1000 : 0"
       inkscape:vp_z="744.09448 : 248.03149 : 1"
       inkscape:persp3d-origin="372.04724 : 165.35433 : 1"
       id="perspective2531" />
    <radialGradient
       inkscape:collect="always"
       xlink:href="#linearGradient7050"
       id="radialGradient3821"
       gradientUnits="userSpaceOnUse"
       gradientTransform="matrix(1,0,0,0.9482742,0,9.464744)"
       cx="79.311195"
       cy="182.97906"
       fx="79.311195"
       fy="182.97906"
       r="10.848755" />
    <radialGradient
       inkscape:collect="always"
       xlink:href="#linearGradient7050"
       id="radialGradient3823"
       gradientUnits="userSpaceOnUse"
       gradientTransform="matrix(1,0,0,1.0163886,0,-2.6035962)"
       cx="86.411697"
       cy="158.86601"
       fx="86.411697"
       fy="158.86601"
       r="10.747751" />
    <radialGradient
       inkscape:collect="always"
       xlink:href="#linearGradient7050"
       id="radialGradient3825"
       gradientUnits="userSpaceOnUse"
       gradientTransform="matrix(1,0,0,1.3515481,0,-58.145304)"
       cx="63.26545"
       cy="165.39787"
       fx="63.26545"
       fy="165.39787"
       r="6.9755721" />
    <radialGradient
       inkscape:collect="always"
       xlink:href="#linearGradient7050"
       id="radialGradient3827"
       gradientUnits="userSpaceOnUse"
       gradientTransform="matrix(1,0,0,0.7258778,0,38.759054)"
       cx="62.873631"
       cy="141.39333"
       fx="62.873631"
       fy="141.39333"
       r="9.7329159" />
    <radialGradient
       inkscape:collect="always"
       xlink:href="#linearGradient7050"
       id="radialGradient3829"
       gradientUnits="userSpaceOnUse"
       gradientTransform="matrix(1,0,0,1.1579706,0,-18.783666)"
       cx="59.14267"
       cy="118.90606"
       fx="59.14267"
       fy="118.90606"
       r="6.907371" />
    <radialGradient
       inkscape:collect="always"
       xlink:href="#linearGradient7050"
       id="radialGradient3831"
       gradientUnits="userSpaceOnUse"
       gradientTransform="matrix(1,0,0,0.694891,0,31.30127)"
       cx="77.340126"
       cy="102.59047"
       fx="77.340126"
       fy="102.59047"
       r="8.2550135" />
    <radialGradient
       inkscape:collect="always"
       xlink:href="#linearGradient7050"
       id="radialGradient3833"
       gradientUnits="userSpaceOnUse"
       gradientTransform="matrix(1,0,0,0.977248,0,2.8998903)"
       cx="95.646194"
       cy="127.45675"
       fx="95.646194"
       fy="127.45675"
       r="9.3893833" />
  </defs>
  <path
     style="fill:#0047ab;fill-opacity:1;fill-rule:evenodd;stroke:none"
     d="M 10.75,0 10.65625,4.375 10.59375,6.53125 10.5,8.96875 10.46875,9.6875 10.15625,20.0625 9.90625,30 9.8125,32.46875 9.6875,36.15625 8.625,67.3125 8.3125,76.75 8.125,81.3125 l -0.15625,4.375 -0.0625,1.5 -0.1875,4.78125 -0.4375,12.875 -0.3125,9.53125 -0.28125,9.5 0,1.34375 -0.0625,0.90625 -0.0625,2.40625 0,0.9375 -0.125,4.5 -0.1875,7.09375 -0.1875,7.75 -0.0625,2.15625 0,0.84375 -0.125,3.8125 -0.0625,2.15625 -0.03125,1.125 -0.1875,7.15625 -0.0625,2.1875 0,0.53125 -0.21875,5 -0.15625,6.6875 -0.0625,1.4375 -0.21875,5.25 -0.0625,1.3125 0,0.3125 -0.0625,1.53125 -0.0625,1.5625 -0.09375,3.15625 -0.15625,4.875 -0.125,3.34375 0,0.4375 -0.125,2.34375 -0.03125,1.625 -0.0625,1.0625 0,0.3125 -0.0625,1.25 -0.34375,6.96875 -0.0625,1.3125 -0.09375,1.65625 -0.0625,1.46875 -0.0625,1.15625 -0.5,13.0625 -0.0625,1.3125 0,0.21875 -0.09375,1.375 0,0.28125 -0.0625,1.34375 0,0.25 -0.09375,1.34375 0,0.15625 L 2.53125,243.5 2.5,243.65625 2.46875,245.125 l -0.0625,1.625 -0.0625,1.5625 -0.0625,1.375 L 2.1875,252.25 2.09375,254.5625 2.0625,256.21875 2,257.875 1.9375,259.0625 1.75,263.96875 1.71875,265.4375 1.625,268.59375 l -0.125,4.75 -0.0625,1.4375 -0.03125,0.15625 -0.125,3.25 -0.09375,1.40625 -0.03125,1.5 -0.09375,1.84375 -0.15625,3.125 -0.0625,1.65625 -0.03125,1.46875 0,0.125 -0.09375,1.5625 -0.0625,1.40625 0,0.40625 -0.0625,4.15625 -0.0625,2.6875 -0.15625,4.8125 -0.03125,1.125 -0.125,5.84375 -0.0625,4.75 -0.15625,7.25 4.125,3.8125 2.5625,2.40625 0.375,0.34375 1.03125,0.96875 4.5625,4.3125 1.71875,1.625 0.3125,0.3125 2.65625,2.46875 0.21875,0.15625 2.90625,2.71875 0.75,0.71875 1.1875,1.125 2.0625,2 2.09375,1.9375 5.09375,4.71875 0.625,0.59375 0.90625,0.875 1.71875,1.59375 2.03125,1.875 0.21875,0.21875 7.875,7.375 0.46875,0.40625 9.8125,9.25 3.46875,3.25 4.15625,3.875 1.71875,1.625 3.65625,3.375 1.6875,1.625 1.03125,0.9375 10.1875,9.53125 2.1875,2.0625 3.25,3.03125 0.6875,0.65625 2.90625,2.6875 4.375,4.125 2.40625,2.25 3.375,3.15625 1.03125,0.96875 4.78125,4.5 9.28125,8.65625 5.3125,4.96875 3.78125,3.5 2.78125,2.59375 3.625,3.40625 2.78125,2.5625 3.125,2.9375 5.875,5.5 8.78125,8.21875 6.40625,5.96875 2.4375,2.28125 2.0625,2 2.84375,2.65625 6.03125,5.6875 9.9375,9.3125 0.15625,0 7.125,6.65625 0.9375,0.84375 4.21875,3.96875 0.5625,0.53125 3.65625,3.375 4.78125,4.46875 0.59375,0.5625 0.625,0.59375 5.25,4.84375 0.5,0.5 13.4375,12.5625 4.84375,4.53125 0.75,0.71875 0.78125,0.6875 1.9375,1.8125 1.15625,1.0625 6.53125,6.15625 0,0.0937 13.84375,12.90625 2.0625,1.90625 0.21875,0.1875 1.21875,1.15625 3.53125,3.25 2.8125,2.625 0.9375,0.875 3.09375,2.90625 0.25,0.25 4.625,4.28125 7.28125,6.78125 2.59375,2.40625 1.59375,1.46875 0.21875,0.21875 5.34375,5.03125 1.8125,1.65625 1.3125,1.21875 3.03125,2.8125 1.21875,1.15625 11.90625,11.0625 7.03125,6.53125 1.0625,1 4.625,4.3125 5.125,4.84375 0.25,0.21875 2.6875,2.53125 0.96875,0.9375 2.21875,2.0625 3.6875,3.4375 1.15625,1.09375 5,4.6875 3.625,3.375 3.03125,2.8125 2.03125,1.90625 18.40625,17.15625 3.3125,3.125 0.28125,-0.0312 1.75,1.6875 3.34375,3.125 4.96875,4.59375 1.25,1.1875 8.5,7.875 1.09375,1 17.4375,16.28125 0.96875,0.90625 0.3125,0.28125 4.53125,4.1875 4.21875,3.96875 1.6875,1.59375 1.59375,1.5 2.625,2.40625 1.53125,1.4375 4.125,3.875 2.90625,2.65625 1.3125,1.21875 9.6875,9.0625 4.96875,4.6875 1.90625,1.75 0.9375,1 1.90625,1.6875 0.84375,0.78125 1.59375,1.5 1.625,1.5625 0.1875,0.15625 1.4375,1.375 2.40625,2.21875 L 464,756.125 l -0.0312,-0.1875 -0.0937,-0.40625 0,-0.25 0,-0.25 0.0312,-0.28125 -0.0312,-0.375 -0.0312,-0.5625 0.0312,-0.65625 0.25,-0.6875 0.1875,-0.3125 0.40625,-0.46875 0.53125,-0.375 0.0937,-0.0625 0.34375,-0.21875 0.40625,-0.25 0.21875,-0.375 0.0625,-0.15625 0.21875,-0.6875 -0.0937,-0.5625 -0.1875,-0.40625 -0.375,-0.40625 -0.40625,-0.3125 -0.21875,-0.25 -0.125,-0.0625 -0.34375,-0.28125 -0.25,-0.0625 -0.15625,-0.0937 -0.125,-0.0312 -0.1875,-0.0937 -0.3125,-0.125 -0.5625,-0.28125 -0.34375,-0.1875 -0.1875,-0.125 -0.25,-0.5 -0.0312,-0.34375 0.25,-0.40625 0.5,-0.625 0.4686,-0.31265 0.5,-0.28125 0.40625,-0.0937 0.1875,-0.0312 0.53125,-0.125 0.75,-0.0312 0.90625,-0.125 0.6875,-0.125 0.5625,-0.1875 0.375,-0.40625 0.0625,-0.0937 0.25,-0.625 0.0625,-0.3125 -0.0625,-0.46875 -0.0312,-0.1875 -0.0625,-0.3125 0.0312,-0.1875 0.0625,-0.46875 0.28125,-0.75 0,-0.3125 -0.0312,-0.46875 0,-0.125 0.0312,-0.3125 0.0312,-0.28125 0,-0.125 0.0312,-0.3125 -0.15625,-0.625 -0.1875,-0.65625 0.0312,-0.53125 -0.125,-0.40625 -0.0937,-0.21875 -0.125,-0.21875 -0.28125,-0.28125 -0.1875,-0.4375 0,-0.625 -0.0312,-0.3125 0,-0.4375 -0.0312,-0.15625 -0.0625,-0.4375 -0.125,-0.4375 -0.125,-0.53125 -0.0625,-0.40625 0,-0.34375 -0.0625,-0.53125 -0.0625,-0.5 -0.0312,-0.5 -0.0312,-0.25 -0.15625,-0.8125 0,-0.0937 -0.28125,-0.9375 -0.40625,-0.75 -0.0625,-0.4375 -0.0312,-0.21875 -0.15625,-0.71875 0,-0.625 -0.0312,-0.15625 0.0937,-0.78125 0.0625,-0.53125 0.0937,-0.65625 -0.21875,-0.5 -0.0937,-0.46875 -0.0625,-0.3125 -0.1875,-0.6875 -0.0312,-0.0937 -0.25,-0.6875 -0.0312,-0.125 -0.5,-0.90625 -0.34375,-1.0625 -0.0937,-0.21875 -0.625,-1.78125 -0.0625,-0.21875 -2.53125,-4.875 -0.71875,-1.25 -0.0625,-0.0937 -0.71875,-1.25 -0.1875,-0.34375 -0.28125,-0.625 -0.25,-0.96875 -0.1875,-0.5625 -0.1875,-0.59375 -0.0312,-0.0937 -0.125,-0.40625 -0.125,-0.34375 -0.0312,-0.125 -0.0625,-0.1875 0.0625,-1.09375 0,-0.0937 0.0937,-0.40625 0.21875,-0.28125 0.0625,-0.0937 0.21875,-0.25 0.25,-0.3125 0.25,-0.25 0.0937,-0.125 0.0937,-0.125 0.1875,-0.21875 0.1875,-0.34375 0.0625,-0.25 -0.0625,-0.1875 -0.15625,-0.28125 -0.1875,-0.5 -0.0937,-0.53125 -0.0312,-0.125 -0.0937,-0.59375 0,-0.25 0.0625,-0.28125 -0.0625,-0.34375 -0.21875,-0.59375 -0.1875,-0.34375 -0.375,-0.21875 -0.25,-0.21875 0,-0.34375 0.0625,-0.25 0.25,-0.15625 0.46875,-0.25 0.0625,-0.0312 0.3125,-0.28125 0.125,-0.0937 0.1875,-0.15625 0.1875,-0.25 0.0312,-0.375 0.125,-0.5625 0,-0.65625 -0.0625,-0.21875 -0.0625,-0.15625 -0.21875,-0.5 -0.21875,-0.21875 -0.25,-0.15625 -0.34375,-0.1875 -0.28125,-0.34375 -0.0625,-0.3125 -0.0625,-0.21875 -0.1875,-0.375 -0.21875,-0.3125 -0.375,-0.40625 -0.375,-0.25 -0.1566,-0.34435 -0.15625,-0.34375 -0.15625,-0.875 0.0937,-0.59375 0.0312,-0.0937 0.0937,-0.34375 0.0625,-0.40625 0.0937,-0.25 0.0937,-0.28125 0.0625,-0.21875 0.0312,-0.15625 0.0312,-0.15625 0,-0.3125 -0.0625,-0.25 -0.2184,-0.2813 -0.25,-0.1875 -0.46875,-0.3125 -0.34375,-0.3125 -0.0625,-0.0625 -0.375,-0.4375 -0.25,-0.46875 -0.0625,-0.4375 -0.0312,-0.5 0.0937,-0.4375 0.125,-0.375 0.0625,-0.15625 0.25,-0.59375 0.125,-0.71875 0.0625,-0.3125 0.0625,-0.28125 -0.125,-0.4375 -0.0937,-0.34375 -0.0937,-0.1875 0,-0.34375 0.125,-0.3125 0.0937,-0.34375 0.0312,-0.15625 -0.0625,-0.21875 -0.1875,-0.3125 -0.1875,-0.34375 -0.0625,-0.40625 -0.0312,-0.5625 0.0312,-0.4375 -0.0625,-0.28125 -0.0312,-0.1875 -0.0312,-0.5625 -0.25,-0.65625 -0.1875,-0.28125 -0.15625,-0.15625 -0.1875,-0.1875 -0.1875,-0.40625 0,-0.25 0.15625,-0.21875 0.15625,-0.25 0.0625,-0.0937 0.125,-0.0937 0.125,-0.125 0.125,-0.375 0.0937,-0.25 0,-0.28125 0.125,-0.21875 0.1875,-0.21875 0.125,-0.25 0.0625,-0.125 -0.0625,-0.28125 -0.125,-0.25 -0.25,-0.375 -0.15625,-0.21875 -0.0937,-0.15625 -0.15625,-0.25 -0.15625,-0.3125 0.0312,-0.25 0.0937,-0.21875 0.28125,-0.125 0.25,-0.0312 0.125,-0.0312 0.1875,-0.0312 0.25,-0.15625 0.15625,-0.25 0.0625,-0.0937 0.0625,-0.0937 0.0625,-0.0937 0.34375,-0.15625 0.5,-0.1875 0.5625,-0.34375 0.28125,-0.0937 0.125,-0.0312 0.25,-0.0625 0.1875,-0.125 0.0625,-0.21875 -0.0937,-0.125 -0.25,-0.15625 -0.40625,-0.125 -0.46875,-0.375 -0.15625,-0.25 -0.0312,-0.0937 -0.53125,-0.5 -0.65625,-0.5 -0.59375,-0.65625 -0.1875,-0.1875 -0.21875,-0.25 -0.1875,-0.21875 -0.21885,-0.43805 -0.15625,-0.34375 0,-0.53125 0.0312,-0.5625 -0.0937,-0.375 -0.3125,-0.625 -0.65625,-0.4375 -0.40625,-0.40625 -0.4375,-0.21875 -0.25,-0.3125 0,-0.1875 0.0312,-0.21875 0.0312,-0.71875 0,-0.46875 -0.125,-0.5 -0.375,-0.34375 -0.4375,-0.75 -0.21875,-0.59375 -0.1875,-0.53125 0,-0.21875 0.0312,-0.25 0.3125,-0.65625 0,-0.46875 -0.0625,-0.375 -0.0937,-0.5625 0.0625,-0.40625 0.0937,-0.1875 0.125,-0.25 0.46875,-0.34375 0.375,-0.46875 0.28125,-0.34375 0.1875,-0.40625 -0.0937,-0.3125 -0.28125,-0.21875 -0.25,-0.34375 -0.34375,-0.125 -0.375,-0.125 -0.125,-0.21875 -0.0625,-0.46875 0.0625,-0.28125 0.1875,-0.21875 0.21875,-0.28125 -0.0937,-0.40625 -0.1875,-0.3125 -0.21875,-0.53125 -0.1562,-0.4375 -0.28125,-0.40625 -0.4375,-0.34375 -0.375,-0.4375 -0.125,-0.4375 0.1875,-0.71875 0.3125,-0.375 0.53125,-0.625 0.5625,-0.375 0.5625,-0.21875 0.6875,-0.21875 1.03125,-0.0937 0.4375,-0.0937 0.4375,-0.0937 0.25,-0.0937 0.1875,-0.15625 0.40625,-0.21875 0.34375,0.125 0.40625,0 0.21875,0 0.375,-0.1875 0.0625,-0.0625 0.4375,-0.21875 0.0625,-0.0312 0.40625,-0.28125 0.1875,-0.21875 0.0625,-0.0937 0.25,-0.28125 0.1875,-0.1875 0.28125,-0.34375 0.375,-0.34375 0.25,-0.1875 0.53125,-0.1875 0.25,-0.3125 0.375,-0.1875 0.1875,-0.15625 0.375,0 0.28125,0.28125 0.125,0.28125 0.125,0.28125 0.34375,0.0937 0.34375,0.0312 0.375,-0.125 0.40625,-0.3125 0.46875,-0.40625 0.0625,-0.0625 0.40625,-0.34375 0.75,-0.53125 0.90625,-0.28125 0.71875,-0.0625 0.53125,-0.125 0.65625,-0.15645 0.4375,-0.0937 0.625,0.15625 0.375,0.28125 0.34375,0.21875 0.375,0 0.25,-0.15625 0.25,-0.25 0.5,-0.0937 0.40625,-0.0625 0.28125,0.0937 0.3125,0.1875 0.25,0.40625 -0.0625,0.1875 -0.21875,0.25 -0.28125,0.25 -0.15625,0.3125 0,0.34375 0.125,0.3125 0.375,0.28125 0.53125,-0.0625 0.625,-0.1875 0.9375,-0.59375 0.78125,-0.53125 0.4375,-0.25 0.34375,0 0.40625,0.15625 0.3125,0.40625 0.40625,0.59375 0.40625,0.1875 0.46875,0.25 0.5625,-0.53125 0.0625,-0.0312 0.6875,-0.5625 0.0937,-0.0625 0.5,-0.46875 0.5625,-0.4375 0.5625,-0.0937 0.6875,-0.0937 0.71875,0.1875 0.5625,0.125 0.75,0 0.5,0.25 0.53125,0.53125 0.21875,0.5 0.46875,0.5 0.34375,0.3125 0.40625,0.28125 0.40625,0.625 0.0625,0.125 0.25,0.375 0.34375,0.25 0.5,0.21875 0.0625,0.0312 0.375,0.15625 0.25,0.21875 0.25,0.375 0.25,0.4375 0.34375,0.46875 0.28125,0.375 0.25,0.40625 0.125,0.5 -0.1875,0.5 -0.3125,0.34375 -0.0625,0.0625 -0.3125,0.34375 -0.0625,0.4375 0.25,0.34375 0.4375,0.1875 0.375,-0.0312 0.4375,-0.0937 0.34375,0.1875 0.46875,0.21875 0.28125,0.375 0.40625,0.1875 0.5625,0.0937 0.40625,0.15625 0.21875,0.46875 0.0937,0.65625 0.15625,0.6875 0.8125,0.6875 1.09375,0.5625 0.46875,0.25 0.59375,0.125 0.84375,-0.0937 0.9375,-0.25 1.03125,-0.40625 0.71875,-0.34375 0.4375,-0.125 0.375,-0.3125 0.53125,-0.25 0.15625,-0.0312 0.4375,-0.0625 0.5,0.0937 0.4375,-0.0625 0.5,0.0625 0.34375,-0.0625 0.28125,-0.21875 0.0312,-0.0625 0.125,-0.375 0,-0.1875 0.1875,-0.1875 0.3125,-0.40625 0.21875,-0.4375 0,-0.71875 0,-0.78125 0.1875,-0.875 0.46875,-1.28125 0.40625,-1.03125 0.40625,-0.5 0.1875,-0.34375 0.0625,-0.40625 -0.15625,-0.21875 -0.28125,-0.34375 -0.3125,-0.3125 0.0625,-0.5 0.1875,-0.4375 0.40625,-0.28125 0.53125,-0.21875 0.5625,-0.3125 0.21875,-0.375 0.21875,-0.84375 0.25,-0.6875 0.5,-0.71875 0.34375,-0.78125 0.0312,-0.125 0.46875,-0.96875 0.40625,-1.125 0.0625,-0.125 0.0312,-0.125 0.21875,-0.46875 0.5625,-0.75 0.0312,-0.0312 0.65625,-0.5625 0.5,-0.125 0,-1.0625 -0.0937,-2.84375 -0.84375,-27.84375 -0.125,-2.6875 -0.25,-7.25 -0.5,-14.1875 -0.34375,-10.15625 -0.0312,-0.34375 -0.0625,-1.625 -0.0937,-2 -0.625,-16.75 0,-0.25 -1.28125,-34.8125 -0.5625,-15.71875 -0.0937,-2.375 -0.15625,-4.71875 -0.15625,-3.96875 -0.0625,-1.65625 -0.0937,-2.40625 -0.125,-3.84375 -0.0312,-0.15625 -0.0625,-2.3125 -0.125,-4.84375 -0.0312,-1.625 -0.1875,-6.78125 0,-0.15625 -0.34375,-12.28125 -0.0312,-0.21875 -0.15625,-13.5 -0.0312,-0.25 -0.40625,-12.6875 -0.0625,-2.4375 -0.1875,-5.34375 -0.9375,-28.84375 -0.28125,-9.03125 -0.0625,-1.9375 -0.0625,-1.3125 -0.28125,-8.09375 -0.125,-3.90625 -0.15625,-4.84375 -0.0312,-0.6875 -0.0937,-3 -0.15625,-4.65625 0,-0.15625 -0.0937,-2 -0.0625,-1.46875 -0.28125,-6.125 -0.15625,-3.1875 -0.21875,-4.625 0,-0.125 0,-0.71875 -0.0312,-1.59375 -0.1875,-7.1875 -0.0625,-3.5 -0.25,-10.5 0,-0.125 -0.1875,-6.78125 -0.0312,-1.40625 -0.1875,-5.125 -0.0625,-2.75 -0.0625,-1.625 -0.0625,-2.75 -0.125,-5.21875 -0.0625,-1.5625 -0.21875,-7.9375 -0.34375,-11.1875 -0.0312,-1 -0.375,-9.875 -0.125,-3.15625 -0.5,-13.96875 -0.28125,-8.28125 -0.5625,-14.75 -0.21875,-5.375 -0.1875,-5.15625 -0.5625,-23 -0.3125,-13.59375 -0.125,-5.28125 -0.0625,-2.40625 -0.0312,-0.6875 -0.1875,-7.96875 -0.0312,-2.8125 -0.0625,-2.125 -0.0312,-2.90625 -0.0625,-1.71875 0,-0.34375 -0.0625,-2.71875 -0.375,-10.84375 -0.0312,-1.59375 -0.0625,-2.25 -0.0312,-0.75 -0.0625,-1.5625 -0.0625,-1.5625 -0.0312,-0.6875 0,-1 -0.0312,-0.46875 -0.0312,-1.125 -0.0312,-1.40625 -0.0625,-1.625 -0.0634,-1.65655 -0.0625,-1.5 -0.0312,-0.4375 0,-1.25 -0.0625,-0.5625 0,-1.0625 -0.0625,-0.53125 0,-0.84375 -0.0625,-0.6875 0,-1.03125 -0.0625,-1.625 -0.0312,-1.53125 -0.0312,-0.40625 0,-1.25 -0.0625,-0.46875 0,-1.15625 -0.0625,-1.34375 -0.0625,-1.75 -0.0625,-1.5625 -0.0625,-1.5625 -0.0312,-1.65625 -0.0625,-1.59375 -0.0625,-1.28125 -0.0625,-1.8125 -0.0625,-1.5625 -0.0625,-1.5625 0,-0.28125 -0.0312,-1.40625 0,-0.3125 -0.0312,-1.09375 0,-0.4375 -0.0625,-0.90625 0,-0.65625 -0.0312,-1.09375 -0.0312,-1.59375 -0.0625,-1.625 -0.0312,-0.3125 -0.0625,-1.34375 -0.0312,-0.3125 0,-1.25 -0.0312,-0.5 -0.0318,-0.84375 0,-0.75 -0.0625,-0.96875 -0.0312,-1.5625 -0.0312,-1.59375 -0.0312,-0.40625 -0.0314,-1.28125 0,-0.25 -0.0625,-0.53125 -0.0312,-1 -0.0312,-1.28125 -0.0312,-0.28125 -0.0312,-1.34375 -0.0625,-1.625 -0.1875,-4.8125 -0.0312,-1.5625 -0.1875,-4.5625 -0.0625,-1.84375 -0.0625,-1.59375 -0.15625,-4.625 -0.21875,-6.40625 -0.0625,-1.46875 -0.125,-3.03125 L 492.12525,8 492.03155,4.96875 491.96905,3.25 l -0.0625,-1.5 0,-0.15625 L 491.84405,0 470.8128,0 l -3.28125,0.15625 -3.21875,0.0625 -1.59375,0.0625 -11.03125,0.25 -4.78125,0.09375 -0.0937,0 -1.46875,0 -1.59375,0 -1.375,-0.03125 -8.34375,0 -4.5,0.03125 -1.6875,0 -1.71875,0.03125 -0.28125,0 -1.15625,0.0625 -1.46875,0.09375 -0.1875,0.03125 -1.5,0.125 -1.40625,0.09375 -3.15625,0.1875 -1.40625,0.0625 -4.3125,0.15625 -7.3125,0.21875 -7.375,0.25 -0.4375,0.03125 -0.71875,0 -8.65625,0.125 -2.8125,0.03125 -1.59375,0 -1.34375,0.03125 -3.5625,0.03125 -1.28125,0.03125 -1.59375,0 -13,0.21875 -9.03125,0.125 -11.5625,0.125 -1.0625,0.03125 -4.96875,0.0625 -0.6875,0 -2.9375,0 -9.21875,-0.0625 -1.15625,0 -1.53125,0.03125 -15.875,0.15625 -0.1875,0 -1.40625,0 -3.375,0.03125 -15.0625,-0.03125 -0.5,0.03125 -6.875,0 -24.59375,-0.03125 -0.9375,-0.03125 -0.0625,0 -16.21875,0.125 -4.5,0.03125 -9.1875,0 -7.21875,-0.0625 -1.125,0 -2.125,0 -2.28125,-0.03125 -4.3125,0.03125 -0.375,-0.03125 -2.78125,0 -1.5,-0.03125 -3.125,0 -0.5625,0 -4.625,0 -0.0625,0 -2.71875,-0.03125 -1.78125,-0.03125 -7.875,-0.03125 -7.46875,-0.03125 -1.90625,0 -2.90625,0 -4.5625,-0.03125 -1.59375,-0.03125 -3.25,0 -1.5,0 -1.625,-0.03125 -6.34375,-0.03125 -3,-0.03125 -3.1875,0 -3.1875,-0.03125 -13.15625,-0.125 -14.59375,-0.125 -0.34375,0 -10.5941,-0.25 L 87.65625,1.6875 79.8125,1.5625 65.3125,1.28125 62.6875,1.25 51.59375,1.03125 l -0.125,0 L 50.9375,1 l -0.21875,0.03125 -0.09375,0 -4,-0.1875 -6.25,-0.3125 -10.46875,-0.375 -2.1875,-0.125 -0.25,0 L 27.28125,0 10.75,0 z"
     id="rect1707"
     inkscape:connector-curvature="0" />
  <g
     id="g6561"
     transform="matrix(0.9977661,0,0,1.0013569,-214.00603,-52.687629)">
    <g
       transform="matrix(1.0123801,0,0,1.0123801,229.47118,89.285422)"
       id="g1625">
      <g
         transform="matrix(-1,0,0,1,288.0376,0.538291)"
         id="g1561">
        <path
           style="font-size:12px;font-style:normal;font-variant:normal;font-weight:100;font-stretch:ultra-condensed;letter-spacing:0;writing-mode:lr-tb;text-anchor:start;fill:#ffdf00;fill-opacity:0.94117647;fill-rule:evenodd;stroke:#000000;stroke-width:1pt;stroke-linecap:butt;stroke-linejoin:miter;stroke-miterlimit:4;stroke-opacity:1;stroke-dashoffset:0;marker:none;font-family:Bitstream Vera Sans"
           id="path1562"
           d="M 61.460628,74.33315 C 54.46511,86.825148 34.977593,86.825148 33.978233,91.322267 c -0.999359,4.497119 2.99808,8.744403 2.99808,8.744403 0,0 28.731594,-8.994243 34.727753,-17.988481 C 77.700225,73.083951 61.460628,74.33315 61.460628,74.33315 z"
           inkscape:connector-curvature="0" />
        <path
           style="font-size:12px;font-style:normal;font-variant:normal;font-weight:100;font-stretch:ultra-condensed;letter-spacing:0;writing-mode:lr-tb;text-anchor:start;fill:#ffdf00;fill-opacity:1;fill-rule:evenodd;stroke:#000000;stroke-width:1pt;stroke-linecap:butt;stroke-linejoin:miter;stroke-miterlimit:4;stroke-opacity:1;stroke-dashoffset:0;marker:none;font-family:Bitstream Vera Sans"
           id="path1563"
           d="m 33.829431,92.950359 c -0.367873,3.231157 11.3916,-0.878572 13.89,-0.628732 2.498399,0.24984 4.996799,3.247919 3.997439,4.996799 -0.99936,1.74888 -7.245359,4.497124 -10.493278,4.746954 -3.247919,0.24984 -7.916345,-5.454448 -7.394161,-9.115021 z"
           inkscape:connector-curvature="0" />
        <path
           style="font-size:12px;font-style:normal;font-variant:normal;font-weight:100;font-stretch:ultra-condensed;letter-spacing:0;writing-mode:lr-tb;text-anchor:start;fill:#ffdf00;fill-opacity:0.94117647;fill-rule:evenodd;stroke:#000000;stroke-width:1pt;stroke-linecap:butt;stroke-linejoin:miter;stroke-miterlimit:4;stroke-opacity:1;stroke-dashoffset:0;marker:none;font-family:Bitstream Vera Sans"
           id="path1564"
           d="m 39.974392,111.14004 c -2.998079,-9.24407 14.119056,-15.776047 7.598992,-17.498497 3.509174,-0.18064 8.765619,3.942755 6.142206,7.510767 -0.947369,1.28849 -12.991678,3.99157 -13.741198,9.98773 z"
           sodipodi:nodetypes="ccsc"
           inkscape:connector-curvature="0" />
      </g>
      <g
         id="g1557">
        <path
           style="font-size:12px;font-style:normal;font-variant:normal;font-weight:100;font-stretch:ultra-condensed;letter-spacing:0;writing-mode:lr-tb;text-anchor:start;fill:#ffdf00;fill-opacity:1;fill-rule:evenodd;stroke:#000000;stroke-width:1pt;stroke-linecap:butt;stroke-linejoin:miter;stroke-miterlimit:4;stroke-opacity:1;stroke-dashoffset:0;marker:none;font-family:Bitstream Vera Sans"
           id="path1554"
           d="M 61.460628,74.33315 C 54.46511,86.825148 34.977593,86.825148 33.978233,91.322267 c -0.999359,4.497119 2.99808,8.744403 2.99808,8.744403 0,0 28.731594,-8.994243 34.727753,-17.988481 C 77.700225,73.083951 61.460628,74.33315 61.460628,74.33315 z"
           inkscape:connector-curvature="0" />
        <path
           style="font-size:12px;font-style:normal;font-variant:normal;font-weight:100;font-stretch:ultra-condensed;letter-spacing:0;writing-mode:lr-tb;text-anchor:start;fill:#ffdf00;fill-opacity:0.94117647;fill-rule:evenodd;stroke:#000000;stroke-width:1pt;stroke-linecap:butt;stroke-linejoin:miter;stroke-miterlimit:4;stroke-opacity:1;stroke-dashoffset:0;marker:none;font-family:Bitstream Vera Sans"
           id="path1555"
           d="m 33.829431,92.950359 c -0.367873,3.231157 11.3916,-0.878572 13.89,-0.628732 2.498399,0.24984 4.996799,3.247919 3.997439,4.996799 -0.99936,1.74888 -7.245359,4.497124 -10.493278,4.746954 -3.247919,0.24984 -7.916345,-5.454448 -7.394161,-9.115021 z"
           inkscape:connector-curvature="0" />
        <path
           style="font-size:12px;font-style:normal;font-variant:normal;font-weight:100;font-stretch:ultra-condensed;letter-spacing:0;writing-mode:lr-tb;text-anchor:start;fill:#ffdf00;fill-opacity:1;fill-rule:evenodd;stroke:#000000;stroke-width:1pt;stroke-linecap:butt;stroke-linejoin:miter;stroke-miterlimit:4;stroke-opacity:1;stroke-dashoffset:0;marker:none;font-family:Bitstream Vera Sans"
           id="path1556"
           d="m 39.974392,109.81042 c -2.998079,-9.24407 14.119056,-15.777112 7.598992,-17.499562 3.509174,-0.18064 8.765619,3.937952 6.142206,7.505967 -0.947369,1.288485 -12.991678,3.997435 -13.741198,9.993595 z"
           inkscape:connector-curvature="0" />
      </g>
      <g
         transform="matrix(-1,0,0,1,287.2113,-0.296097)"
         id="g1550">
        <path
           style="fill:#ffdf00;fill-opacity:1;fill-rule:evenodd;stroke:#000000;stroke-width:1pt;stroke-linecap:butt;stroke-linejoin:miter;stroke-opacity:1"
           id="path1551"
           d="M 37.162943,56.018114 C 32.332096,45.699486 49.766394,33.861028 33.249922,42.523775 34.816786,32.915292 46.63585,37.23423 46.63585,40.958621 c 0,3.724391 -4.938866,7.367817 -4.857901,10.363522 0.08096,2.995706 5.019832,5.100796 5.019832,5.100796 l -9.634838,-0.404825 z"
           inkscape:connector-curvature="0" />
        <path
           style="fill:#ffdf00;fill-opacity:1;fill-rule:evenodd;stroke:#000000;stroke-width:1pt;stroke-linecap:butt;stroke-linejoin:miter;stroke-opacity:1"
           id="path1552"
           d="M 63.019159,38.496743 C 53.30844,37.474562 48.142272,55.445235 37.181832,56.269631 36.880779,57.27781 39.737515,60.073972 45.231507,60.10281 53.409185,60.14574 69.76385,43.875687 69.76385,43.875687 l -6.744691,-5.378944 z"
           inkscape:connector-curvature="0" />
        <path
           style="fill:#ffdf00;fill-opacity:1;fill-rule:evenodd;stroke:#000000;stroke-width:1pt;stroke-linecap:butt;stroke-linejoin:miter;stroke-opacity:1"
           id="path1553"
           d="m 51.554677,68.830184 c 0.282288,-7.057219 13.876753,-16.336087 15.065467,-23.864615 0.846866,-5.363487 -4.234331,-6.492642 -4.234331,-6.492642 0,0 6.492642,-1.976021 20.607079,17.501903 14.114437,19.477923 -31.25787,12.881118 -31.438215,12.855354 z"
           inkscape:connector-curvature="0" />
      </g>
      <g
         id="g1546">
        <path
           style="fill:#ffdf00;fill-opacity:1;fill-rule:evenodd;stroke:#000000;stroke-width:1pt;stroke-linecap:butt;stroke-linejoin:miter;stroke-opacity:1"
           id="path923"
           d="M 37.162943,56.018114 C 32.332096,45.699486 49.766394,33.861028 33.249922,42.523775 34.816786,32.915292 46.63585,37.23423 46.63585,40.958621 c 0,3.724391 -4.938866,7.367817 -4.857901,10.363522 0.08096,2.995706 5.019832,5.100796 5.019832,5.100796 l -9.634838,-0.404825 z"
           inkscape:connector-curvature="0" />
        <path
           style="fill:#ffdf00;fill-opacity:1;fill-rule:evenodd;stroke:#000000;stroke-width:1pt;stroke-linecap:butt;stroke-linejoin:miter;stroke-opacity:1"
           id="path922"
           d="M 63.019159,38.496743 C 53.30844,37.474562 48.142272,55.445235 37.181832,56.269631 36.880779,57.27781 39.737515,60.073972 45.231507,60.10281 53.409185,60.14574 69.76385,43.875687 69.76385,43.875687 l -6.744691,-5.378944 z"
           inkscape:connector-curvature="0" />
        <path
           style="fill:#ffdf00;fill-opacity:1;fill-rule:evenodd;stroke:#000000;stroke-width:1pt;stroke-linecap:butt;stroke-linejoin:miter;stroke-opacity:1"
           id="path921"
           d="m 51.554677,68.830184 c 0.282288,-7.057219 13.876753,-16.336087 15.065467,-23.864615 0.846866,-5.363487 -4.234331,-6.492642 -4.234331,-6.492642 0,0 6.492642,-1.976021 20.607079,17.501903 14.114437,19.477923 -31.25787,12.881118 -31.438215,12.855354 z"
           inkscape:connector-curvature="0" />
      </g>
      <path
         sodipodi:nodetypes="ccssssc"
         style="fill:#ffdf00;fill-opacity:1;fill-rule:evenodd;stroke:#000000;stroke-width:1pt;stroke-linecap:butt;stroke-linejoin:miter;stroke-opacity:1"
         id="path919"
         d="m 52.187803,68.689426 c 19.457804,0.244471 42.167267,-37.609619 91.561387,-37.609619 49.56666,0 76.66935,36.2243 90.70483,36.849745 6.8147,0.303674 -18.10879,24.056086 -21.84354,24.270603 -8.25264,0.474018 -39.21175,-33.205931 -68.37234,-33.205931 -25.20221,0 -53.058894,31.964961 -69.078437,31.591364 -3.045638,-0.07103 -27.989381,-21.958301 -22.9719,-21.896162 z"
         inkscape:connector-curvature="0" />
      <g
         id="g1614">
        <path
           style="font-size:12px;font-style:normal;font-variant:normal;font-weight:normal;font-stretch:condensed;writing-mode:lr-tb;text-anchor:start;fill:#000000;fill-opacity:1;stroke:none;font-family:Impact"
           id="text1574"
           d="m 210.69,65.173698 -10.78155,13.469242 -2.62295,-2.099563 3.34459,-7.36922 -4.90131,6.123138 -2.50213,-2.002837 10.78155,-13.469242 2.50212,2.002839 -3.17713,7.407706 4.85468,-6.064901 2.50213,2.002838"
           inkscape:connector-curvature="0" />
        <path
           style="font-size:12px;font-style:normal;font-variant:normal;font-weight:normal;font-stretch:condensed;writing-mode:lr-tb;text-anchor:start;fill:#000000;fill-opacity:1;stroke:none;font-family:Impact"
           id="path1593"
           d="m 191.90468,51.733651 2.29992,1.439604 c 1.53325,0.959743 2.52668,1.677946 2.98023,2.154598 0.4587,0.479899 0.67878,1.11216 0.66031,1.896791 -0.01,0.781852 -0.40453,1.796037 -1.18477,3.042571 -0.71244,1.138151 -1.31204,1.827253 -1.79886,2.067306 -0.48685,0.24006 -1.1098,0.177013 -1.8688,-0.189143 0.52628,0.589251 0.80204,1.109694 0.82731,1.561318 0.0252,0.451625 -0.0194,0.826024 -0.13374,1.123194 -0.1055,0.29437 -0.52766,1.0317 -1.26642,2.211998 l -2.41427,3.857048 -3.01768,-1.888871 3.04187,-4.859699 c 0.49,-0.782851 0.73941,-1.301429 0.74822,-1.555745 0.0139,-0.251086 -0.20288,-0.516729 -0.65054,-0.796924 l -4.12743,6.594015 -3.24921,-2.033801 9.15386,-14.62426 m 1.68306,4.535913 -2.03546,3.251844 c 0.36531,0.228668 0.65581,0.330879 0.87149,0.306629 0.2246,-0.02703 0.53855,-0.362729 0.94188,-1.007079 l 0.5032,-0.80393 c 0.29024,-0.463681 0.40856,-0.812877 0.35497,-1.047585 -0.0485,-0.231474 -0.2605,-0.464766 -0.63608,-0.699879"
           inkscape:connector-curvature="0" />
        <path
           style="font-size:12px;font-style:normal;font-variant:normal;font-weight:normal;font-stretch:condensed;writing-mode:lr-tb;text-anchor:start;fill:#000000;fill-opacity:1;stroke:none;font-family:Impact"
           id="path1591"
           d="m 182.0812,57.942022 c -0.69572,1.555327 -1.22168,2.643462 -1.57785,3.264406 -0.3479,0.617003 -0.8077,1.118923 -1.37942,1.50576 -0.56629,0.389269 -1.19407,0.601863 -1.88333,0.637781 -0.68929,0.03592 -1.407,-0.113001 -2.15314,-0.446755 -0.70801,-0.316706 -1.28534,-0.735593 -1.732,-1.256674 -0.43837,-0.52502 -0.70793,-1.135174 -0.8087,-1.830467 -0.10074,-0.695295 -0.0413,-1.37627 0.17854,-2.042936 0.21976,-0.666658 0.68605,-1.796779 1.39889,-3.390352 l 1.18471,-2.648518 c 0.69568,-1.55532 1.2175,-2.641484 1.56537,-3.258501 0.35618,-0.620932 0.81742,-1.126036 1.38372,-1.515319 0.57172,-0.386821 1.20222,-0.598198 1.8915,-0.634128 0.68926,-0.0359 1.40698,0.113012 2.15312,0.446753 0.70801,0.316715 1.28119,0.737579 1.71957,1.262585 0.44665,0.521091 0.72035,1.129277 0.82113,1.824559 0.10076,0.695305 0.0412,1.37628 -0.17853,2.042934 -0.21977,0.666671 -0.68608,1.796789 -1.39888,3.390353 l -1.1847,2.648519 M 180.91719,51.3169 c 0.32217,-0.720286 0.49206,-1.195068 0.50966,-1.424353 0.0259,-0.233198 -0.0674,-0.397311 -0.27978,-0.492333 -0.17972,-0.08038 -0.35566,-0.05964 -0.52784,0.06223 -0.16388,0.11795 -0.42401,0.575319 -0.78041,1.372091 l -3.23334,7.228444 c -0.40203,0.89878 -0.62014,1.466739 -0.65432,1.70389 -0.0287,0.239585 0.0713,0.410535 0.30001,0.512856 0.23419,0.104756 0.43812,0.05064 0.61185,-0.162351 0.17369,-0.212989 0.4644,-0.775246 0.87215,-1.686768 l 3.18202,-7.113709"
           inkscape:connector-curvature="0" />
        <path
           style="font-size:12px;font-style:normal;font-variant:normal;font-weight:normal;font-stretch:condensed;writing-mode:lr-tb;text-anchor:start;fill:#000000;fill-opacity:1;stroke:none;font-family:Impact"
           id="path1589"
           d="m 164.03299,40.316842 3.67639,1.05267 c 1.16126,0.332524 2.00919,0.689858 2.5438,1.072001 0.54043,0.383844 0.90157,0.952811 1.08344,1.706903 0.18381,0.747287 0.0704,1.838061 -0.3403,3.272325 -0.27771,0.969849 -0.60261,1.608413 -0.97471,1.915688 -0.3663,0.308957 -0.96099,0.45644 -1.78411,0.44244 0.78745,0.469345 1.2576,1.010406 1.41048,1.623187 0.15481,0.605961 0.0777,1.448503 -0.23124,2.52762 l -0.44002,1.536722 c -0.32073,1.1201 -0.66922,1.91818 -1.04545,2.394246 -0.37042,0.477737 -0.82324,0.747129 -1.35845,0.808184 -0.53524,0.06105 -1.54397,-0.120628 -3.02618,-0.545035 l -4.26287,-1.220597 4.74922,-16.586354 m 2.87258,3.89299 -1.05603,3.688132 c 0.15951,0.03829 0.28303,0.06997 0.37057,0.09502 0.36179,0.103606 0.62164,0.06716 0.77951,-0.109342 0.15982,-0.183311 0.38054,-0.766722 0.66216,-1.750234 0.14861,-0.519059 0.21142,-0.892736 0.1884,-1.121038 -0.0211,-0.235109 -0.0909,-0.399201 -0.20947,-0.492284 -0.11274,-0.09138 -0.35779,-0.194804 -0.73514,-0.310255 m -1.79526,6.269825 -1.32884,4.640901 c 0.52523,0.128223 0.88232,0.127011 1.07126,-0.0036 0.19478,-0.128971 0.38799,-0.528123 0.57965,-1.197452 l 0.44294,-1.546965 c 0.20338,-0.710305 0.26239,-1.158966 0.17704,-1.345988 -0.0854,-0.187012 -0.39938,-0.369297 -0.94205,-0.546858"
           inkscape:connector-curvature="0" />
        <path
           sodipodi:nodetypes="ccccccccccccc"
           style="font-size:12px;font-style:normal;font-variant:normal;font-weight:normal;font-stretch:condensed;writing-mode:lr-tb;text-anchor:start;fill:#000000;fill-opacity:1;stroke:none;font-family:Impact"
           id="path1586"
           d="m 140.22822,37.014306 6.4298,0 0,3.473257 -2.57375,0 0,3.291018 2.40888,0 0,3.301739 -2.40888,0 0,3.083198 2.83022,0 0,3.467077 -6.68627,0 0,-16.616289"
           inkscape:connector-curvature="0" />
        <path
           sodipodi:nodetypes="ccccccc"
           style="font-size:12px;font-style:normal;font-variant:normal;font-weight:normal;font-stretch:condensed;writing-mode:lr-tb;text-anchor:start;fill:#000000;fill-opacity:1;stroke:none;font-family:Impact"
           id="path1585"
           d="m 130.49671,38.228278 2.57327,13.19489 3.75821,-0.756685 0.65922,3.268346 -7.43872,1.504376 -3.21706,-16.496163 3.66508,-0.714764"
           inkscape:connector-curvature="0" />
        <path
           style="font-size:12px;font-style:normal;font-variant:normal;font-weight:normal;font-stretch:condensed;writing-mode:lr-tb;text-anchor:start;fill:#000000;fill-opacity:1;stroke:none;font-family:Impact"
           id="path1584"
           d="m 120.51262,40.723542 1.18697,3.24227 -2.13753,0.782531 4.74419,12.959073 -3.5996,1.317779 -4.74419,-12.959072 -2.12898,0.779399 -1.18697,-3.242269 7.86611,-2.879711"
           inkscape:connector-curvature="0" />
        <path
           style="font-size:12px;font-style:normal;font-variant:normal;font-weight:normal;font-stretch:condensed;writing-mode:lr-tb;text-anchor:start;fill:#000000;fill-opacity:1;stroke:none;font-family:Impact"
           id="path1583"
           d="m 107.84889,45.786576 1.54663,3.086936 -2.03513,1.01964 6.18169,12.338216 -3.42714,1.717069 -6.18169,-12.338216 -2.02698,1.015559 -1.54663,-3.086935 7.48925,-3.752269"
           inkscape:connector-curvature="0" />
        <path
           style="font-size:12px;font-style:normal;font-variant:normal;font-weight:normal;font-stretch:condensed;writing-mode:lr-tb;text-anchor:start;fill:#000000;fill-opacity:1;stroke:none;font-family:Impact"
           id="path1582"
           d="m 94.510747,53.508883 11.217763,13.290562 -3.29426,2.132572 -1.84571,-2.499279 -1.154139,0.747143 1.494119,2.726885 -3.332479,2.157311 -7.740062,-15.541885 4.654768,-3.013309 m 4.324039,10.415826 c -1.224752,-1.53447 -2.698518,-3.453613 -4.421302,-5.757433 1.465257,2.978314 2.572145,5.13496 3.320667,6.469939 l 1.100635,-0.712506"
           inkscape:connector-curvature="0" />
        <path
           style="font-size:12px;font-style:normal;font-variant:normal;font-weight:normal;font-stretch:condensed;writing-mode:lr-tb;text-anchor:start;fill:#000000;fill-opacity:1;stroke:none;font-family:Impact"
           id="path1580"
           d="m 76.861774,64.480843 3.136875,-2.187232 c 0.990859,-0.690871 1.803205,-1.123049 2.437039,-1.296534 0.638822,-0.176923 1.308085,-0.09794 2.00779,0.236936 0.695644,0.329085 1.470119,1.105517 2.323426,2.329292 0.576996,0.82753 0.867239,1.482576 0.870725,1.965138 0.0085,0.479115 -0.252488,1.033484 -0.782856,1.663103 0.861047,-0.31456 1.577469,-0.33775 2.149267,-0.06957 0.56773,0.262374 1.172601,0.853935 1.814618,1.774681 l 0.914257,1.311205 c 0.666385,0.955732 1.065481,1.729747 1.197284,2.322047 0.13677,0.588842 0.05993,1.110101 -0.230515,1.563783 -0.290461,0.453692 -1.068041,1.121453 -2.332743,2.003285 l -3.637282,2.536148 -9.867885,-14.152279 m 4.832673,0.22892 2.194218,3.146894 c 0.130376,-0.09956 0.232907,-0.175377 0.307592,-0.227465 0.30871,-0.21524 0.444435,-0.439789 0.407179,-0.673649 -0.04132,-0.239664 -0.354537,-0.779086 -0.939665,-1.618272 -0.308812,-0.44288 -0.559025,-0.727439 -0.750638,-0.853676 -0.195669,-0.132037 -0.367018,-0.181445 -0.514049,-0.14823 -0.142045,0.02978 -0.376924,0.154573 -0.704637,0.374398 m 3.73017,5.349719 2.761057,3.959841 c 0.430954,-0.326467 0.655389,-0.60421 0.673306,-0.833228 0.02289,-0.232479 -0.164763,-0.634272 -0.562971,-1.205382 L 87.375658,70.66077 c -0.422592,-0.60606 -0.733355,-0.935007 -0.932291,-0.986844 -0.198935,-0.05182 -0.538518,0.0767 -1.01875,0.385559"
           inkscape:connector-curvature="0" />
      </g>
    </g>
    <path
       style="fill:#c9c0bb;fill-opacity:1;fill-rule:evenodd;stroke:none"
       id="path920"
       d="m 374.84845,158.63629 9.09092,25.15164 26.06063,0 -21.81824,16.06059 8.788,25.15148 -20.90908,-16.06055 -22.42435,15.75753 8.18191,-24.84846 L 340,183.78793 l 27.27268,-0.60609 7.57577,-24.54555 z"
       inkscape:connector-curvature="0" />
    <g
       transform="matrix(1.0202135,0.2259312,0.0827815,1.0133064,204.48293,76.647791)"
       id="g1695">
      <path
         style="fill:#017b21;fill-opacity:1;fill-rule:evenodd;stroke:#014004;stroke-width:1.25026417;stroke-linecap:butt;stroke-linejoin:miter;stroke-miterlimit:4;stroke-opacity:1;stroke-dasharray:none"
         id="path1676"
         d="m 178.46679,223.03861 c -4.68528,3.40748 -13.20399,-13.20398 -35.77854,-16.61146 -22.57456,-3.40748 -20.44489,17.88927 -31.5192,11.07431 -11.07431,-6.81496 15.33366,-10.64838 15.33366,-10.64838 0,0 -6.81496,0.42594 -11.07431,0 -4.25935,-0.42593 -11.50024,4.25935 -16.611465,4.68529 -5.111221,0.42593 -7.666832,-2.98155 -8.518702,-6.38903 -0.85187,-3.40748 -1.277805,-6.38903 -1.277805,-6.38903 0,0 6.389026,5.53716 9.796507,5.9631 3.407485,0.42593 10.222445,0 10.222445,0 0,0 -5.53716,-2.55561 -9.79651,-5.11123 -4.259351,-2.55561 -8.944637,-6.38902 -8.944637,-6.38902 0,0 -8.092766,4.25935 -15.759597,2.98154 -7.666831,-1.2778 -12.778052,-13.62992 -12.778052,-13.62992 0,0 7.666831,8.94464 13.203987,9.79651 5.537156,0.85187 8.944636,-1.70374 8.944636,-1.70374 0,0 -5.537155,-6.38903 -8.518701,-10.64838 -2.981545,-4.25935 -3.40748,-2.55561 -2.981545,-4.25935 0.425935,-1.70374 0.425935,-3.40748 0.425935,-3.40748 l -5.963091,-2.12967 -3.833416,-4.25936 c 0,0 -5.11122,-5.53715 -5.537156,-8.09276 -0.425935,-2.55561 5.111221,-7.2409 7.240897,-6.38903 2.129675,0.85187 -1.277806,4.25935 -0.851871,7.2409 0.425935,2.98154 7.240896,6.81496 7.240896,6.81496 0,0 -3.40748,-5.96309 -3.40748,-8.5187 0,-2.55561 -0.425935,-3.83342 -0.425935,-3.83342 0,0 0.85187,1.27781 -2.129675,-1.70374 -2.981546,-2.98154 -8.518702,-2.55561 -8.518702,-5.96309 0,-3.40748 -0.425935,-5.11122 -0.425935,-5.11122 0,0 2.129676,2.98155 4.685286,4.68529 2.55561,1.70374 4.685286,1.70374 4.685286,1.70374 0,0 -2.555611,-2.98155 -5.537156,-7.2409 -2.981546,-4.25935 -13.629922,-9.37057 -13.203987,-11.50025 0.425935,-2.12967 1.70374,-4.25935 1.70374,-4.25935 0,0 1.277805,4.25935 5.537156,4.25935 4.259351,0 4.259351,-8.5187 4.259351,-8.5187 0,0 2.55561,7.2409 5.11122,7.2409 2.555611,0 5.537156,-3.83342 5.537156,-3.83342 0,0 -0.85187,8.09277 -2.55561,10.22244 -1.70374,2.12968 -4.259351,4.25936 -2.555611,6.81497 1.703741,2.55561 5.111221,8.94463 5.111221,8.94463 0,0 1.277805,0.85187 2.981546,-2.55561 1.70374,-3.40748 4.25935,-8.94463 1.70374,-12.35211 -2.555611,-3.40749 -5.537156,-5.9631 -5.537156,-5.9631 0,0 3.833416,2.12968 4.685286,1.27781 0.85187,-0.85187 -0.85187,-7.2409 -2.555611,-13.62992 -1.70374,-6.38903 -5.537155,-11.92618 -5.537155,-11.92618 0,0 3.833415,3.40748 10.222441,3.83341 6.389026,0.42594 13.629922,-0.85187 13.629922,-0.85187 0,0 -4.685286,2.12968 -7.240896,2.98155 -2.55561,0.85187 -4.685286,2.12967 -4.685286,2.12967 0,0 5.111221,-0.85187 4.685286,0.85187 -0.425935,1.70374 -6.814961,3.40748 -6.389026,6.38903 0.425935,2.98154 6.814961,-2.55561 11.074312,-4.68529 4.25935,-2.12967 9.796506,-2.12967 9.796506,-2.12967 0,0 -5.537156,7.24089 -8.092766,8.5187 -2.55561,1.2778 -9.370571,4.68528 -9.370571,4.68528 0,0 2.129675,1.70374 4.685285,0.42594 2.555611,-1.27781 4.685286,-3.40748 4.685286,-3.40748 0,0 -1.70374,6.81496 -4.685286,9.37057 -2.981545,2.55561 -5.963091,1.70374 -5.963091,1.70374 0,0 -0.425935,1.27781 -0.425935,4.68529 0,3.40748 -0.85187,5.96309 -0.85187,5.96309 0,0 5.963091,-5.53716 7.240896,-8.09277 1.277805,-2.55561 6.814961,-4.25935 6.814961,-4.25935 l -1.277805,5.11122 6.814961,-6.81496 1.70374,5.11122 c 0,0 0.425935,1.70374 2.981546,1.70374 2.55561,0 3.83342,0.42594 3.83342,0.42594 0,0 -5.963096,1.70374 -11.500251,2.12967 -5.537156,0.42594 -8.518702,-1.2778 -9.370572,0.85187 -0.85187,2.12968 0,3.40748 -2.55561,6.38903 -2.555611,2.98154 -5.111221,11.07431 -5.111221,14.48179 0,3.40748 1.277805,4.25935 1.277805,4.25935 0,0 0,0.42593 2.129676,-3.83342 2.129675,-4.25935 6.814961,-8.94463 6.814961,-8.94463 0,0 -3.407481,9.37057 -4.685286,11.92618 -1.277805,2.55561 -3.407481,5.53716 -1.70374,8.94464 1.70374,3.40748 10.648376,13.20398 14.907727,17.0374 4.25935,3.83341 8.518701,7.24089 8.518701,7.24089 0,0 -2.55561,-4.25935 -0.85187,-6.81496 1.70374,-2.55561 6.81496,2.55561 8.5187,5.53716 1.70374,2.98154 3.40748,6.38903 5.53716,7.2409 2.12967,0.85187 1.70374,0.42593 1.70374,0.42593 l -0.42594,-5.96309 c 0,0 2.55561,3.40748 5.53716,4.25935 2.98154,0.85187 6.81496,1.27781 6.81496,1.27781 0,0 -5.11122,-3.83342 -8.5187,-7.66684 -3.40748,-3.83341 -6.38903,-6.38902 -7.66683,-5.53715 -1.27781,0.85187 -2.55561,3.40748 -4.68529,0.42593 -2.12967,-2.98154 -3.83341,-6.38902 -6.81496,-6.81496 -2.981545,-0.42593 -5.111221,4.25935 -5.111221,4.25935 0,0 -0.85187,-4.68528 -0.85187,-7.66683 0,-2.98154 4.259351,-2.98154 3.407481,-5.11122 -0.851871,-2.12967 -2.981546,-1.70374 -4.685286,-6.81496 -1.70374,-5.11122 -5.963091,-9.37057 -5.963091,-9.37057 0,0 7.240896,6.81496 9.370571,6.38902 2.129676,-0.42593 6.389026,-6.81496 6.389026,-6.81496 0,0 -0.85187,5.11122 -0.85187,10.64838 0,5.53716 0,11.07431 2.55561,11.50025 2.55561,0.42593 1.70374,-4.25935 4.68529,-1.70374 2.98154,2.55561 5.53715,10.22244 8.09276,11.50024 2.55561,1.27781 3.83342,-1.2778 2.55561,-4.68528 -1.2778,-3.40748 -4.68528,-2.98155 -5.11122,-6.81496 -0.42593,-3.83342 0.42594,-5.11122 0.42594,-5.11122 0,0 1.70374,6.38902 3.40748,6.38902 1.70374,0 3.40748,-11.92618 3.40748,-11.92618 0,0 5.96309,8.5187 5.53715,12.77805 -0.42593,4.25935 -4.25935,3.83342 -4.25935,7.2409 0,3.40748 -0.42593,8.94463 1.70374,8.5187 2.12968,-0.42594 5.11122,-7.66683 5.11122,-7.66683 0,0 0.85187,4.25935 2.55561,7.24089 1.70374,2.98155 3.40749,5.9631 3.40749,5.9631 0,0 1.2778,-1.27781 0,-6.81497 -1.27781,-5.53715 -2.98155,-8.5187 -3.40749,-11.50024 -0.42593,-2.98155 1.70374,-6.38903 3.83342,-5.53716 2.12968,0.85187 2.12968,4.25935 1.70374,10.22244 -0.42593,5.96309 -0.85187,12.77806 0.85187,12.77806 1.70374,0 13.62992,2.55561 22.14862,7.66683 8.51871,5.11122 17.46334,9.37057 15.7596,13.20398 z"
         inkscape:connector-curvature="0" />
      <path
         style="fill:#ffdf00;fill-opacity:1;fill-rule:evenodd;stroke:url(#radialGradient3821);stroke-opacity:1"
         id="path1677"
         d="m 73.51518,182.34519 c -2.663236,-2.28278 -6.087399,-1.52183 -3.804624,-4.94599 2.282776,-3.42414 5.326475,-3.0437 7.60925,-1.52185 2.282775,1.52185 -1.52185,-3.04369 1.902312,-2.66325 3.424161,0.38048 8.750634,5.70694 6.848323,7.60926 -1.902313,1.90231 2.663236,1.90231 3.424161,4.56557 0.760926,2.66322 -1.141387,8.37014 -4.946011,7.22875 -3.804623,-1.14139 -8.370172,-0.38045 -8.750635,-3.04367 -0.380462,-2.66325 -1.902313,-10.65297 -2.282776,-7.22882 z"
         inkscape:connector-curvature="0" />
      <path
         style="fill:#ffdf00;fill-opacity:1;fill-rule:evenodd;stroke:url(#radialGradient3823);stroke-opacity:1"
         id="path1678"
         d="m 79.03695,160.97026 c 2.872984,7.54157 5.745986,8.61899 9.696347,8.25985 3.950379,-0.35914 10.055436,-9.33727 7.182498,-12.92839 -2.873005,-3.59134 -7.541613,3.23199 -7.541613,3.23199 0,0 0,-1.79547 -0.71825,-3.59114 -0.718258,-1.79566 -2.513874,-1.79566 -2.513874,-1.79566 0,0 2.154748,1.43653 5.027746,0 2.872986,-1.43653 3.232122,-3.23218 1.436499,-4.66855 -1.795625,-1.43651 -8.259861,-1.43651 -11.851108,0.35915 -3.591251,1.79548 -3.591251,6.46421 -3.591251,8.61898 0,2.15463 0,1.43635 2.873006,2.51377 z"
         inkscape:connector-curvature="0" />
      <path
         style="fill:#ffdf00;fill-opacity:1;fill-rule:evenodd;stroke:url(#radialGradient3825);stroke-opacity:1"
         id="path1679"
         d="m 60.908714,171.07454 c -5.537156,2.12967 -4.685286,-7.2409 -2.129675,-10.22245 2.55561,-2.98154 3.40748,-5.53715 5.537155,-3.83341 2.129676,1.70374 -1.277805,4.25935 1.277806,3.40748 2.55561,-0.85187 0.85187,-4.68529 2.981545,-3.83342 2.129675,0.85187 0.85187,5.11122 0,8.5187 -0.85187,3.40749 -1.70374,7.66684 -3.833415,8.51871 -2.129676,0.85187 -4.685286,1.70374 -3.833416,-2.55561 z"
         inkscape:connector-curvature="0" />
      <path
         style="fill:#ffdf00;fill-opacity:1;fill-rule:evenodd;stroke:url(#radialGradient3827);stroke-opacity:1"
         id="path1680"
         d="m 63.038389,147.22217 c -6.814961,0 -5.963091,-0.42593 -6.389026,-2.55561 -0.425935,-2.12967 2.981546,-1.2778 0.425935,-3.83341 -2.55561,-2.55561 -2.981545,0.85187 -3.40748,-2.12968 -0.425935,-2.98154 4.259351,-3.40748 7.666831,-3.83341 3.407481,-0.42594 1.277805,2.55561 4.259351,2.55561 2.981545,0 4.685285,-0.85187 4.685285,-0.85187 l -1.277805,3.83341 c 0,0 3.833416,-1.2778 2.981546,1.70374 -0.851871,2.98155 -1.703741,7.66683 -8.944637,5.11122 z"
         inkscape:connector-curvature="0" />
      <path
         style="fill:#ffdf00;fill-opacity:1;fill-rule:evenodd;stroke:url(#radialGradient3829);stroke-opacity:1"
         id="path1681"
         d="m 58.353104,119.96233 c -1.277806,4.68528 1.277805,6.81496 -2.555611,6.38902 -3.833415,-0.42593 -2.981545,-4.25935 -2.981545,-8.09276 0,-3.83342 2.129675,-7.2409 5.963091,-6.81496 3.833415,0.42593 6.814961,4.25935 4.685285,7.24089 -2.129675,2.98155 4.259351,-0.85187 1.277806,2.12968 -2.981546,2.98154 -4.685286,2.55561 -6.389026,-0.85187 z"
         inkscape:connector-curvature="0" />
      <path
         style="fill:#ffdf00;fill-opacity:1;fill-rule:evenodd;stroke:url(#radialGradient3831);stroke-opacity:1"
         id="path1689"
         d="m 70.70522,97.813705 c 1.277806,3.833415 -4.25935,8.518705 1.703741,9.796505 5.963091,1.27781 14.481792,-3.40748 12.352116,-5.96309 -2.129675,-2.55561 -4.685285,0 -8.092766,0 -3.40748,0 -2.55561,-5.963091 -5.963091,-3.833415 z"
         inkscape:connector-curvature="0" />
      <path
         style="fill:#ffdf00;fill-opacity:1;fill-rule:evenodd;stroke:url(#radialGradient3833);stroke-opacity:1"
         id="path1690"
         d="m 103.92816,134.44412 c -2.55562,3.83342 -5.537161,0 -8.944641,-0.42593 -3.407481,-0.42594 -7.240896,0 -8.092766,-2.98155 -0.85187,-2.98155 2.55561,-0.42594 4.685285,-2.12968 2.129676,-1.70374 0,-2.98154 2.129676,-2.98154 2.129675,0 1.70374,0.42593 3.40748,2.12967 1.703741,1.70374 -0.85187,-4.68528 0.425935,-6.81496 1.277806,-2.12967 5.111221,-4.25935 5.537161,0 0.42593,4.25935 -1.27781,8.09277 -2.12968,9.37057 -0.85187,1.27781 5.53716,-2.12967 2.98155,3.83342 z"
         inkscape:connector-curvature="0" />
    </g>
    <use
       y="0"
       xlink:href="#g1695"
       x="0"
       width="744.09448"
       transform="matrix(-1.0000001,0,0,1,750.00002,0.9999996)"
       id="use1704"
       height="496.06299" />
    <g
       transform="matrix(1.0051504,0,0,1.0051504,228.08891,92.497692)"
       style="fill:#ffdf00;fill-opacity:1"
       id="g1682">
      <path
         style="font-size:12px;font-style:normal;font-variant:normal;font-weight:normal;font-stretch:condensed;writing-mode:lr-tb;text-anchor:start;fill:#ffdf00;fill-opacity:1;stroke:none;font-family:Impact"
         id="text1654"
         d="m 177.65923,135.28087 10.78132,10.1479 -3.53058,2.671 -1.75503,-1.96229 -1.23693,0.93578 1.37821,2.24736 -3.57153,2.70199 -7.05413,-12.96763 4.98867,-3.77411 m 3.83618,8.8673 c -1.17207,-1.18605 -2.57804,-2.68128 -4.21793,-4.48573 1.33322,2.48869 2.346,4.2814 3.03834,5.37814 l 1.17959,-0.89241"
         inkscape:connector-curvature="0" />
      <path
         style="font-size:12px;font-style:normal;font-variant:normal;font-weight:normal;font-stretch:condensed;writing-mode:lr-tb;text-anchor:start;fill:#ffdf00;fill-opacity:1;stroke:none;font-family:Impact"
         id="path1664"
         d="m 159.70553,146.80531 2.78015,-1.51058 c 1.79463,-0.97508 3.04676,-1.55964 3.75643,-1.75372 0.71557,-0.19725 1.32962,-0.21621 1.84222,-0.0569 0.51258,0.15934 0.92305,0.42542 1.23142,0.7983 0.30551,0.36761 0.78722,1.15937 1.44519,2.37528 l 2.43298,4.49627 c 0.6236,1.15247 0.97949,1.9579 1.06762,2.41624 0.0911,0.44986 0.0468,0.86734 -0.13318,1.25241 -0.18281,0.37982 -0.47052,0.73453 -0.86319,1.06418 -0.39552,0.32436 -1.03753,0.72791 -1.926,1.21066 l -4.68656,2.54642 -6.94708,-12.83854 m 4.9043,0.17769 4.56989,8.44535 c 0.53545,-0.29092 0.81346,-0.56511 0.83404,-0.82258 0.0177,-0.26274 -0.20514,-0.82232 -0.66857,-1.67875 l -2.69902,-4.98792 c -0.31467,-0.58152 -0.53694,-0.94303 -0.66681,-1.08455 -0.12987,-0.1415 -0.28836,-0.20929 -0.47552,-0.20339 -0.19001,6.4e-4 -0.48801,0.11124 -0.89401,0.33184"
         inkscape:connector-curvature="0" />
      <path
         style="font-size:12px;font-style:normal;font-variant:normal;font-weight:normal;font-stretch:condensed;writing-mode:lr-tb;text-anchor:start;fill:#ffdf00;fill-opacity:1;stroke:none;font-family:Impact"
         id="path1662"
         d="m 154.12003,147.90898 5.58996,13.71017 -4.3212,0.9625 -0.78099,-2.5141 -1.51393,0.33721 0.31978,2.61684 -4.37133,0.97368 -1.02814,-14.72628 6.10585,-1.36002 m -0.19514,9.65957 c -0.57327,-1.56583 -1.23083,-3.51008 -1.9727,-5.83278 0.1786,2.81765 0.35491,4.8691 0.52895,6.15435 l 1.44375,-0.32157"
         inkscape:connector-curvature="0" />
      <path
         style="font-size:12px;font-style:normal;font-variant:normal;font-weight:normal;font-stretch:condensed;writing-mode:lr-tb;text-anchor:start;fill:#ffdf00;fill-opacity:1;stroke:none;font-family:Impact"
         id="path1660"
         d="m 146.51972,149.21702 -4.17935,14.1689 -6.70754,-0.8961 -0.61777,-14.80977 4.66065,0.62264 c 0.006,4.05791 -0.0589,7.47857 -0.19568,10.262 0.60263,-2.75152 1.17439,-5.19183 1.71526,-7.32094 l 0.66378,-2.64937 4.66065,0.62264"
         inkscape:connector-curvature="0" />
      <path
         style="font-size:12px;font-style:normal;font-variant:normal;font-weight:normal;font-stretch:condensed;writing-mode:lr-tb;text-anchor:start;fill:#ffdf00;fill-opacity:1;stroke:none;font-family:Impact"
         id="path1659"
         d="m 123.29891,144.1416 9.46102,3.08924 -0.8799,2.78601 -3.78711,-1.23659 -0.83371,2.63982 3.54451,1.15736 -0.83644,2.64842 -3.54451,-1.15737 -0.96679,3.06115 4.16447,1.35981 -0.87989,2.78599 -9.83837,-3.21245 4.39672,-13.92139"
         inkscape:connector-curvature="0" />
      <path
         style="font-size:12px;font-style:normal;font-variant:normal;font-weight:normal;font-stretch:condensed;writing-mode:lr-tb;text-anchor:start;fill:#ffdf00;fill-opacity:1;stroke:none;font-family:Impact"
         id="path1658"
         d="m 122.15885,143.39524 -8.40194,11.93716 -3.87875,-2.73004 1.51752,-7.04693 -3.81953,5.42666 -3.70006,-2.60428 8.40194,-11.93716 3.70005,2.60427 -1.30249,7.12109 3.78321,-5.37505 3.70005,2.60428"
         inkscape:connector-curvature="0" />
    </g>
  </g>
</svg>
