<?xml version="1.0" encoding="UTF-8" standalone="no"?><!DOCTYPE svg PUBLIC "-//W3C//DTD SVG 1.1//EN" "http://www.w3.org/Graphics/SVG/1.1/DTD/svg11.dtd"><svg width="100%" height="100%" viewBox="0 0 513 757" version="1.1" xmlns="http://www.w3.org/2000/svg" xmlns:xlink="http://www.w3.org/1999/xlink" xml:space="preserve" xmlns:serif="http://www.serif.com/" style="fill-rule:evenodd;clip-rule:evenodd;stroke-linejoin:round;stroke-miterlimit:2;"><path id="Nevada" d="M10.75,0l-0.094,4.375l-0.062,2.156l-0.094,2.438l-0.031,0.718l-0.313,10.375l-0.25,9.938l-0.094,2.469l-0.125,3.687l-1.062,31.157l-0.313,9.437l-0.187,4.563l-0.156,4.374l-0.063,1.501l-0.187,4.781l-0.438,12.875l-0.312,9.531l-0.282,9.5l0,1.344l-0.062,0.906l-0.063,2.406l0,0.938l-0.125,4.5l-0.187,7.094l-0.188,7.75l-0.062,2.156l0,0.844l-0.125,3.812l-0.063,2.156l-0.031,1.125l-0.187,7.156l-0.063,2.188l0,0.531l-0.219,5l-0.156,6.688l-0.062,1.437l-0.219,5.25l-0.063,1.313l0,0.312l-0.062,1.531l-0.063,1.563l-0.093,3.156l-0.157,4.875l-0.125,3.344l0,0.438l-0.125,2.343l-0.031,1.625l-0.062,1.063l0,0.312l-0.063,1.25l-0.344,6.969l-0.062,1.313l-0.094,1.656l-0.062,1.469l-0.063,1.156l-0.5,13.062l-0.062,1.313l0,0.219l-0.094,1.375l0,0.281l-0.063,1.344l0,0.25l-0.093,1.343l0,0.157l-0.063,1.312l-0.031,0.156l-0.031,1.469l-0.063,1.625l-0.062,1.563l-0.063,1.375l-0.094,2.562l-0.093,2.313l-0.032,1.656l-0.062,1.656l-0.063,1.188l-0.187,4.906l-0.031,1.469l-0.094,3.156l-0.125,4.75l-0.063,1.437l-0.031,0.157l-0.125,3.25l-0.094,1.406l-0.031,1.5l-0.094,1.844l-0.156,3.125l-0.062,1.656l-0.032,1.469l0,0.125l-0.093,1.562l-0.063,1.406l0,0.407l-0.062,4.156l-0.063,2.687l-0.156,4.813l-0.031,1.125l-0.125,5.844l-0.063,4.75l-0.156,7.25l4.125,3.812l2.562,2.406l0.375,0.344l1.032,0.969l4.562,4.312l1.719,1.625l0.312,0.313l2.657,2.469l0.218,0.156l2.907,2.719l0.75,0.718l1.187,1.125l2.063,2l2.093,1.938l5.094,4.719l0.625,0.593l0.906,0.875l1.719,1.594l2.031,1.875l0.219,0.219l7.875,7.375l0.469,0.406l9.812,9.25l3.469,3.25l4.156,3.875l1.719,1.625l3.656,3.375l1.688,1.625l1.031,0.938l10.188,9.531l2.187,2.062l3.25,3.032l0.688,0.656l2.906,2.687l4.375,4.125l2.406,2.25l3.375,3.157l1.031,0.968l4.782,4.5l9.281,8.657l5.312,4.968l3.782,3.5l2.781,2.594l3.625,3.406l2.781,2.563l3.125,2.937l5.875,5.5l8.781,8.219l6.407,5.969l2.437,2.281l2.063,2l2.843,2.656l6.032,5.688l9.937,9.312l0.156,0l7.125,6.657l0.938,0.843l4.219,3.969l0.562,0.531l3.656,3.375l4.782,4.469l0.593,0.563l0.625,0.593l5.25,4.844l0.5,0.5l13.438,12.563l4.844,4.531l0.75,0.719l0.781,0.687l1.937,1.813l1.157,1.062l6.531,6.156l0,0.094l13.844,12.906l2.062,1.906l0.219,0.188l1.219,1.156l3.531,3.25l3.75,3.5l3.094,2.906l0.25,0.25l4.625,4.282l7.281,6.781l2.594,2.406l1.593,1.469l0.219,0.219l5.344,5.031l1.812,1.656l1.313,1.219l3.031,2.812l1.219,1.157l11.906,11.062l7.031,6.531l1.063,1l4.625,4.313l5.125,4.844l0.25,0.218l2.687,2.532l0.969,0.937l2.219,2.063l3.687,3.437l1.157,1.094l5,4.687l3.625,3.375l3.031,2.813l2.031,1.906l18.406,17.156l3.313,3.125l0.281,-0.031l1.75,1.688l3.344,3.125l4.969,4.594l1.25,1.187l8.5,7.875l1.093,1l17.438,16.281l0.969,0.907l0.312,0.281l4.531,4.187l4.219,3.969l1.688,1.594l1.593,1.5l2.625,2.406l1.532,1.438l4.125,3.875l2.906,2.656l1.312,1.219l9.688,9.062l4.969,4.688l1.906,1.75l0.937,1l1.907,1.687l0.843,0.781l1.594,1.5l1.625,1.563l0.188,0.156l1.437,1.375l2.406,2.219l-0.187,-0.594l-0.031,-0.187l-0.094,-0.407l0,-0.25l0,-0.25l0.031,-0.281l-0.031,-0.375l-0.031,-0.562l0.031,-0.657l0.25,-0.687l0.188,-0.313l0.406,-0.468l0.531,-0.375l0.094,-0.063l0.344,-0.219l0.406,-0.25l0.219,-0.375l0.062,-0.156l0.219,-0.687l-0.094,-0.563l-0.187,-0.406l-0.375,-0.406l-0.407,-0.313l-0.218,-0.25l-0.125,-0.062l-0.344,-0.282l-0.25,-0.062l-0.156,-0.094l-0.125,-0.031l-0.188,-0.094l-0.312,-0.125l-0.563,-0.281l-0.344,-0.188l-0.187,-0.125l-0.25,-0.5l-0.031,-0.343l0.25,-0.407l0.5,-0.625l0.468,-0.312l0.5,-0.281l0.406,-0.094l0.188,-0.031l0.531,-0.125l0.75,-0.032l0.906,-0.125l0.688,-0.125l0.562,-0.187l0.375,-0.406l0.063,-0.094l0.25,-0.625l0.062,-0.313l-0.062,-0.468l-0.031,-0.188l-0.063,-0.312l0.031,-0.188l0.063,-0.469l0.281,-0.75l0,-0.312l-0.031,-0.469l0,-0.125l0.031,-0.312l0.031,-0.282l0,-0.125l0.032,-0.312l-0.157,-0.625l-0.187,-0.656l0.031,-0.532l-0.125,-0.406l-0.094,-0.219l-0.125,-0.218l-0.281,-0.282l-0.187,-0.437l0,-0.625l-0.032,-0.313l0,-0.437l-0.031,-0.156l-0.062,-0.438l-0.125,-0.437l-0.125,-0.532l-0.063,-0.406l0,-0.344l-0.062,-0.531l-0.063,-0.5l-0.031,-0.5l-0.031,-0.25l-0.156,-0.812l0,-0.094l-0.282,-0.937l-0.406,-0.75l-0.062,-0.438l-0.032,-0.219l-0.156,-0.718l0,-0.625l-0.031,-0.157l0.094,-0.781l0.062,-0.531l0.094,-0.656l-0.219,-0.5l-0.094,-0.469l-0.062,-0.313l-0.188,-0.687l-0.031,-0.094l-0.25,-0.687l-0.031,-0.125l-0.5,-0.907l-0.344,-1.062l-0.093,-0.219l-0.625,-1.781l-0.063,-0.219l-2.531,-4.875l-0.719,-1.25l-0.062,-0.094l-0.719,-1.25l-0.188,-0.343l-0.281,-0.625l-0.25,-0.969l-0.187,-0.563l-0.188,-0.593l-0.031,-0.094l-0.125,-0.406l-0.125,-0.344l-0.031,-0.125l-0.063,-0.188l0.063,-1.093l0,-0.094l0.093,-0.406l0.219,-0.282l0.063,-0.093l0.218,-0.25l0.25,-0.313l0.25,-0.25l0.094,-0.125l0.094,-0.125l0.187,-0.218l0.188,-0.344l0.062,-0.25l-0.062,-0.188l-0.157,-0.281l-0.187,-0.5l-0.094,-0.531l-0.031,-0.125l-0.094,-0.594l0,-0.25l0.063,-0.281l-0.063,-0.344l-0.218,-0.594l-0.188,-0.343l-0.375,-0.219l-0.25,-0.219l0,-0.344l0.063,-0.25l0.25,-0.156l0.468,-0.25l0.063,-0.031l0.312,-0.281l0.125,-0.094l0.188,-0.156l0.187,-0.25l0.032,-0.375l0.125,-0.563l0,-0.656l-0.063,-0.219l-0.062,-0.156l-0.219,-0.5l-0.219,-0.219l-0.25,-0.156l-0.344,-0.188l-0.281,-0.343l-0.062,-0.313l-0.063,-0.219l-0.187,-0.375l-0.219,-0.312l-0.375,-0.406l-0.375,-0.25l-0.157,-0.345l-0.156,-0.343l-0.156,-0.875l0.093,-0.594l0.032,-0.094l0.093,-0.344l0.063,-0.406l0.094,-0.25l0.093,-0.281l0.063,-0.219l0.031,-0.156l0.031,-0.156l0,-0.313l-0.062,-0.25l-0.219,-0.281l-0.25,-0.188l-0.469,-0.312l-0.343,-0.313l-0.063,-0.062l-0.375,-0.438l-0.25,-0.468l-0.062,-0.438l-0.031,-0.5l0.093,-0.438l0.125,-0.375l0.063,-0.156l0.25,-0.594l0.125,-0.718l0.062,-0.313l0.063,-0.281l-0.125,-0.438l-0.094,-0.343l-0.094,-0.188l0,-0.344l0.125,-0.312l0.094,-0.344l0.031,-0.156l-0.062,-0.219l-0.188,-0.312l-0.187,-0.344l-0.063,-0.406l-0.031,-0.563l0.031,-0.437l-0.062,-0.282l-0.031,-0.187l-0.032,-0.563l-0.25,-0.656l-0.187,-0.281l-0.156,-0.156l-0.188,-0.188l-0.187,-0.406l0,-0.25l0.156,-0.219l0.156,-0.25l0.063,-0.093l0.125,-0.094l0.125,-0.125l0.125,-0.375l0.093,-0.25l0,-0.281l0.125,-0.219l0.188,-0.219l0.125,-0.25l0.062,-0.125l-0.062,-0.281l-0.125,-0.25l-0.25,-0.375l-0.156,-0.219l-0.094,-0.156l-0.156,-0.25l-0.157,-0.313l0.032,-0.25l0.093,-0.218l0.281,-0.125l0.25,-0.032l0.125,-0.031l0.188,-0.031l0.25,-0.156l0.156,-0.25l0.063,-0.094l0.062,-0.094l0.063,-0.093l0.343,-0.157l0.5,-0.187l0.563,-0.344l0.281,-0.094l0.125,-0.031l0.25,-0.062l0.188,-0.125l0.062,-0.219l-0.093,-0.125l-0.25,-0.156l-0.407,-0.125l-0.468,-0.375l-0.157,-0.25l-0.031,-0.094l-0.531,-0.5l-0.656,-0.5l-0.594,-0.656l-0.188,-0.188l-0.218,-0.25l-0.188,-0.218l-0.219,-0.439l-0.156,-0.343l0,-0.532l0.031,-0.562l-0.094,-0.375l-0.312,-0.625l-0.656,-0.438l-0.407,-0.406l-0.437,-0.219l-0.25,-0.312l0,-0.188l0.031,-0.218l0.031,-0.719l0,-0.469l-0.125,-0.5l-0.375,-0.344l-0.437,-0.75l-0.219,-0.593l-0.187,-0.532l0,-0.218l0.031,-0.25l0.312,-0.657l0,-0.468l-0.062,-0.375l-0.094,-0.563l0.063,-0.406l0.093,-0.188l0.125,-0.25l0.469,-0.343l0.375,-0.469l0.281,-0.344l0.188,-0.406l-0.094,-0.313l-0.281,-0.218l-0.25,-0.344l-0.344,-0.125l-0.375,-0.125l-0.125,-0.219l-0.062,-0.469l0.062,-0.281l0.188,-0.219l0.218,-0.281l-0.093,-0.406l-0.188,-0.313l-0.219,-0.531l-0.156,-0.437l-0.281,-0.407l-0.438,-0.343l-0.375,-0.438l-0.125,-0.437l0.188,-0.719l0.312,-0.375l0.532,-0.625l0.562,-0.375l0.563,-0.219l0.687,-0.219l1.031,-0.093l0.438,-0.094l0.437,-0.094l0.25,-0.093l0.188,-0.157l0.406,-0.218l0.344,0.125l0.625,0l0.375,-0.188l0.062,-0.062l0.438,-0.219l0.062,-0.031l0.407,-0.282l0.187,-0.218l0.063,-0.094l0.25,-0.281l0.187,-0.188l0.281,-0.343l0.375,-0.344l0.25,-0.188l0.532,-0.187l0.25,-0.313l0.375,-0.187l0.187,-0.156l0.375,0l0.281,0.281l0.25,0.562l0.344,0.094l0.344,0.031l0.375,-0.125l0.406,-0.312l0.469,-0.407l0.062,-0.062l0.407,-0.344l0.75,-0.531l0.906,-0.281l0.719,-0.063l0.531,-0.125l0.656,-0.156l0.438,-0.094l0.625,0.156l0.375,0.282l0.343,0.218l0.375,0l0.25,-0.156l0.25,-0.25l0.5,-0.094l0.407,-0.062l0.281,0.094l0.312,0.187l0.25,0.406l-0.062,0.188l-0.219,0.25l-0.281,0.25l-0.156,0.312l0,0.344l0.125,0.313l0.375,0.281l0.531,-0.063l0.625,-0.187l0.937,-0.594l0.782,-0.531l0.437,-0.25l0.344,0l0.406,0.156l0.313,0.406l0.406,0.594l0.406,0.188l0.469,0.25l0.562,-0.532l0.063,-0.031l0.687,-0.562l0.094,-0.063l0.5,-0.469l0.563,-0.437l0.562,-0.094l0.688,-0.094l0.718,0.188l0.563,0.125l0.75,0l0.5,0.25l0.531,0.531l0.219,0.5l0.469,0.5l0.343,0.313l0.407,0.281l0.406,0.625l0.062,0.125l0.25,0.375l0.344,0.25l0.5,0.219l0.063,0.031l0.375,0.156l0.25,0.219l0.25,0.375l0.25,0.437l0.343,0.469l0.282,0.375l0.25,0.406l0.125,0.5l-0.188,0.5l-0.312,0.344l-0.063,0.063l-0.312,0.343l-0.063,0.438l0.25,0.344l0.438,0.187l0.375,-0.031l0.437,-0.094l0.344,0.188l0.469,0.219l0.281,0.375l0.406,0.187l0.563,0.094l0.406,0.156l0.219,0.469l0.093,0.656l0.157,0.687l0.812,0.688l1.094,0.562l0.469,0.25l0.593,0.125l0.844,-0.093l0.938,-0.25l1.031,-0.407l0.719,-0.343l0.437,-0.125l0.375,-0.313l0.531,-0.25l0.157,-0.031l0.437,-0.062l0.5,0.093l0.438,-0.062l0.5,0.062l0.343,-0.062l0.282,-0.219l0.031,-0.063l0.125,-0.375l0,-0.187l0.187,-0.188l0.313,-0.406l0.219,-0.437l0,-0.719l0,-0.781l0.187,-0.875l0.469,-1.282l0.406,-1.031l0.406,-0.5l0.188,-0.344l0.062,-0.406l-0.156,-0.219l-0.281,-0.343l-0.313,-0.313l0.063,-0.5l0.187,-0.437l0.407,-0.282l0.531,-0.218l0.562,-0.313l0.219,-0.375l0.219,-0.844l0.25,-0.687l0.5,-0.719l0.344,-0.781l0.031,-0.125l0.469,-0.969l0.406,-1.125l0.062,-0.125l0.031,-0.125l0.219,-0.468l0.563,-0.75l0.031,-0.032l0.656,-0.562l0.5,-0.125l0,-1.063l-0.094,-2.843l-0.843,-27.844l-0.125,-2.688l-0.25,-7.25l-0.5,-14.187l-0.344,-10.156l-0.031,-0.344l-0.063,-1.625l-0.093,-2l-0.625,-16.75l0,-0.25l-1.282,-34.813l-0.562,-15.718l-0.094,-2.375l-0.156,-4.719l-0.156,-3.969l-0.063,-1.656l-0.094,-2.406l-0.125,-3.844l-0.031,-0.156l-0.062,-2.313l-0.125,-4.844l-0.031,-1.625l-0.188,-6.781l0,-0.156l-0.344,-12.281l-0.031,-0.219l-0.156,-13.5l-0.031,-0.25l-0.407,-12.688l-0.062,-2.437l-0.188,-5.344l-0.937,-28.844l-0.281,-9.031l-0.063,-1.937l-0.062,-1.313l-0.282,-8.094l-0.125,-3.906l-0.156,-4.844l-0.031,-0.687l-0.094,-3l-0.156,-4.656l0,-0.157l-0.094,-2l-0.062,-1.468l-0.281,-6.125l-0.157,-3.188l-0.218,-4.625l0,-0.125l0,-0.719l-0.032,-1.593l-0.187,-7.188l-0.063,-3.5l-0.25,-10.5l0,-0.125l-0.187,-6.781l-0.031,-1.406l-0.188,-5.125l-0.062,-2.75l-0.063,-1.625l-0.062,-2.75l-0.125,-5.219l-0.063,-1.563l-0.219,-7.937l-0.343,-11.188l-0.032,-1l-0.375,-9.875l-0.125,-3.156l-0.5,-13.969l-0.281,-8.281l-0.562,-14.75l-0.219,-5.375l-0.188,-5.156l-0.562,-23l-0.313,-13.594l-0.125,-5.281l-0.062,-2.406l-0.031,-0.688l-0.188,-7.969l-0.031,-2.812l-0.062,-2.125l-0.032,-2.906l-0.062,-1.719l0,-0.344l-0.063,-2.719l-0.375,-10.843l-0.031,-1.594l-0.062,-2.25l-0.032,-0.75l-0.062,-1.563l-0.063,-1.562l-0.031,-0.688l0,-1l-0.031,-0.468l-0.031,-1.125l-0.031,-1.407l-0.063,-1.625l-0.063,-1.656l-0.063,-1.5l-0.031,-0.438l0,-1.25l-0.062,-0.562l0,-1.063l-0.063,-0.531l0,-0.844l-0.062,-0.687l0,-1.031l-0.063,-1.625l-0.031,-1.532l-0.031,-0.406l0,-1.25l-0.063,-0.469l0,-1.156l-0.062,-1.344l-0.063,-1.75l-0.062,-1.562l-0.063,-1.563l-0.031,-1.656l-0.063,-1.594l-0.062,-1.281l-0.063,-1.812l-0.062,-1.563l-0.063,-1.562l0,-0.282l-0.031,-1.406l0,-0.312l-0.031,-1.094l0,-0.438l-0.062,-0.906l0,-0.656l-0.032,-1.094l-0.031,-1.594l-0.062,-1.625l-0.032,-0.312l-0.062,-1.344l-0.031,-0.312l0,-1.25l-0.031,-0.5l-0.032,-0.844l0,-0.75l-0.063,-0.969l-0.031,-1.562l-0.031,-1.594l-0.031,-0.406l-0.032,-1.282l0,-0.25l-0.062,-0.531l-0.031,-1l-0.032,-1.281l-0.031,-0.281l-0.031,-1.344l-0.063,-1.625l-0.187,-4.813l-0.031,-1.562l-0.188,-4.563l-0.062,-1.843l-0.063,-1.594l-0.156,-4.625l-0.219,-6.406l-0.062,-1.469l-0.125,-3.031l-0.188,-4.813l-0.093,-3.031l-0.063,-1.719l-0.062,-1.5l0,-0.156l-0.063,-1.594l-21.031,0l-3.281,0.156l-3.219,0.063l-1.594,0.062l-11.031,0.25l-4.781,0.094l-0.094,0l-1.469,0l-1.594,0l-1.375,-0.031l-8.343,0l-4.5,0.031l-1.688,0l-1.719,0.031l-0.281,0l-1.156,0.063l-1.469,0.094l-0.187,0.031l-1.5,0.125l-1.407,0.094l-3.156,0.187l-1.406,0.063l-4.313,0.156l-7.312,0.219l-7.375,0.25l-0.438,0.031l-0.718,0l-8.657,0.125l-2.812,0.031l-1.594,0l-1.344,0.031l-3.562,0.032l-1.281,0.031l-1.594,0l-13,0.219l-9.031,0.125l-11.563,0.125l-1.062,0.031l-4.969,0.062l-0.688,0l-2.937,0l-9.219,-0.062l-1.156,0l-1.531,0.031l-15.875,0.156l-0.188,0l-1.406,0l-3.375,0.032l-15.063,-0.032l-0.5,0.032l-6.875,0l-24.593,-0.032l-0.938,-0.031l-0.062,0l-16.219,0.125l-4.5,0.031l-9.188,0l-7.218,-0.062l-1.125,0l-2.125,0l-2.282,-0.031l-4.312,0.031l-0.375,-0.031l-2.781,0l-1.5,-0.032l-3.125,0l-0.563,0l-4.625,0l-0.062,0l-2.719,-0.031l-1.781,-0.031l-7.875,-0.031l-7.469,-0.032l-1.906,0l-2.907,0l-4.562,-0.031l-1.594,-0.031l-3.25,0l-1.5,0l-1.625,-0.031l-6.344,-0.032l-3,-0.031l-3.187,0l-3.188,-0.031l-13.156,-0.125l-14.594,-0.125l-0.343,0l-10.595,-0.25l-11.281,-0.406l-7.844,-0.125l-14.5,-0.282l-2.625,-0.031l-11.093,-0.219l-0.125,0l-0.532,-0.031l-0.218,0.031l-0.094,0l-4,-0.187l-6.25,-0.313l-10.469,-0.375l-2.187,-0.125l-0.25,0l-0.188,-0.031l-16.531,0Z" style="fill:#ff0085;"/></svg>